<svg width="84" height="84" viewBox="0 0 84 84" fill="none" xmlns="http://www.w3.org/2000/svg">
<path d="M57.3125 62.1042L62 57.4167L45.4375 40.75V19.8125H39.1875V43.25L57.3125 62.1042ZM42 83.6667C36.3056 83.6667 30.9236 82.5729 25.8542 80.3854C20.7847 78.1979 16.3577 75.2118 12.5729 71.4271C8.78821 67.6424 5.80209 63.2153 3.61459 58.1458C1.42709 53.0764 0.333344 47.6945 0.333344 42C0.333344 36.3056 1.42709 30.9236 3.61459 25.8542C5.80209 20.7847 8.78821 16.3577 12.5729 12.5729C16.3577 8.78821 20.7847 5.80209 25.8542 3.61459C30.9236 1.42709 36.3056 0.333344 42 0.333344C47.6945 0.333344 53.0764 1.42709 58.1458 3.61459C63.2153 5.80209 67.6424 8.78821 71.4271 12.5729C75.2118 16.3577 78.1979 20.7847 80.3854 25.8542C82.5729 30.9236 83.6667 36.3056 83.6667 42C83.6667 47.6945 82.5729 53.0764 80.3854 58.1458C78.1979 63.2153 75.2118 67.6424 71.4271 71.4271C67.6424 75.2118 63.2153 78.1979 58.1458 80.3854C53.0764 82.5729 47.6945 83.6667 42 83.6667ZM42 77.4167C51.7222 77.4167 60.0556 73.9445 67 67C73.9445 60.0556 77.4167 51.7222 77.4167 42C77.4167 32.2778 73.9445 23.9445 67 17C60.0556 10.0556 51.7222 6.58334 42 6.58334C32.2778 6.58334 23.9445 10.0556 17 17C10.0556 23.9445 6.58334 32.2778 6.58334 42C6.58334 51.7222 10.0556 60.0556 17 67C23.9445 73.9445 32.2778 77.4167 42 77.4167Z" fill="white"/>
</svg>
