<svg width="85" height="85" viewBox="0 0 85 85" fill="none" xmlns="http://www.w3.org/2000/svg">
<g clip-path="url(#clip0_6_2)">
<path d="M42.5 85C65.9721 85 85 65.9721 85 42.5C85 19.0279 65.9721 0 42.5 0C19.0279 0 0 19.0279 0 42.5C0 65.9721 19.0279 85 42.5 85Z" fill="#5865F2"/>
<path d="M59.6367 28.6851C56.5243 27.4204 53.2398 26.5186 49.8654 26.0024C49.8347 25.9971 49.8029 26.0007 49.7745 26.0124C49.7462 26.0243 49.723 26.0437 49.7078 26.0679C49.2597 26.7869 48.853 27.5255 48.489 28.2808C44.8518 27.7918 41.152 27.7918 37.5148 28.2808C37.1492 27.5236 36.7366 26.7848 36.279 26.0679C36.2633 26.0441 36.2399 26.0252 36.2118 26.0135C36.1837 26.0018 36.1522 25.9979 36.1215 26.0024C32.748 26.5178 29.4647 27.4196 26.3539 28.6851C26.3271 28.6951 26.3046 28.7122 26.2893 28.7341C20.0665 36.9661 18.3621 44.9953 19.1984 52.9234C19.2008 52.9429 19.2076 52.9617 19.2184 52.9789C19.2291 52.996 19.2437 53.0111 19.2612 53.023C22.8848 55.3994 26.9381 57.2135 31.248 58.3878C31.2784 58.3959 31.3109 58.3955 31.3411 58.3868C31.3713 58.378 31.3977 58.3613 31.4169 58.3389C32.3422 57.2235 33.1623 56.0423 33.8686 54.8077C33.8782 54.7908 33.8837 54.7722 33.8847 54.7532C33.8856 54.7343 33.8819 54.7154 33.8741 54.6978C33.8663 54.68 33.8542 54.6641 33.8389 54.6508C33.8235 54.6377 33.8053 54.6275 33.7851 54.6209C32.4917 54.1836 31.2397 53.6562 30.0405 53.0437C30.0187 53.0325 30.0004 53.0166 29.9872 52.9974C29.9741 52.9784 29.9663 52.9567 29.9649 52.9344C29.9634 52.9121 29.9681 52.8898 29.9788 52.8696C29.9893 52.8492 30.0053 52.8315 30.0254 52.818C30.2767 52.652 30.5289 52.4777 30.7689 52.3017C30.7902 52.2862 30.8161 52.2762 30.8434 52.2731C30.8707 52.2699 30.8984 52.2735 30.9236 52.2834C38.7795 55.4593 47.2852 55.4593 55.0483 52.2834C55.0736 52.2726 55.1018 52.2686 55.1297 52.2714C55.1577 52.2744 55.184 52.2844 55.2058 52.3001C55.4458 52.4752 55.698 52.6512 55.9557 52.818C55.976 52.8314 55.9921 52.849 56.0029 52.8692C56.0136 52.8894 56.0185 52.9117 56.0173 52.934C56.0159 52.9563 56.0085 52.978 55.9955 52.9972C55.9825 53.0163 55.9644 53.0322 55.9426 53.0437C54.745 53.6621 53.4905 54.1897 52.1924 54.6209C52.1721 54.6276 52.1537 54.6382 52.1384 54.6517C52.1232 54.6652 52.1113 54.6814 52.1036 54.6993C52.0959 54.7172 52.0925 54.7363 52.0937 54.7555C52.095 54.7745 52.1008 54.7932 52.1109 54.8102C52.8289 56.0381 53.6478 57.2177 54.5607 58.3397C54.5792 58.3628 54.6056 58.3801 54.6358 58.3892C54.6661 58.3983 54.6989 58.3986 54.7294 58.3904C59.0453 57.2195 63.1039 55.4052 66.7303 53.0255C66.7482 53.014 66.7629 52.9994 66.7737 52.9826C66.7845 52.9657 66.7912 52.9469 66.7932 52.9276C67.7945 43.7602 65.1168 35.7964 59.6958 28.7375C59.6837 28.7143 59.6627 28.6959 59.6367 28.6851ZM35.0405 48.0965C32.675 48.0965 30.7276 46.1741 30.7276 43.8133C30.7276 41.4526 32.6385 39.5301 35.0405 39.5301C37.4622 39.5301 39.3928 41.4691 39.3533 43.8133C39.3552 46.1741 37.4435 48.0965 35.0405 48.0965ZM50.9914 48.0965C48.6259 48.0965 46.6786 46.1741 46.6786 43.8133C46.6786 41.4526 48.5893 39.5301 50.9914 39.5301C53.4132 39.5301 55.3436 41.4691 55.3042 43.8133C55.3052 46.1741 53.4132 48.0965 50.9914 48.0965Z" fill="white"/>
</g>
<defs>
<clipPath id="clip0_6_2">
<rect width="85" height="85" fill="white"/>
</clipPath>
</defs>
</svg>
