<svg width="100" height="70" viewBox="0 0 100 70" fill="none" xmlns="http://www.w3.org/2000/svg">
<path d="M59.2261 12.459C59.9615 8.02982 61.5115 4.68902 63.4369 3.73417C66.8451 2.04397 70.4129 7.95908 71.5456 17.1776C71.9038 20.093 71.6756 20.7522 71.5456 23.7389C70.8996 25.647 67 22.2505 69.3325 18.2751C69.7417 21.6057 74.814 8.93288 69.3325 18.2751C68.597 12.2891 66.3855 8.62269 64.1724 9.72023C62.4684 10.5653 61.1726 14.3516 61.101 18.7374L59.0318 19.7636C57.9415 15.954 55.9176 13.814 54.2135 14.6591C52.0004 15.7567 50.8922 21.0693 51.6277 27.0554C52.63 35.212 56.7087 41.73 62.9162 51.0732C62.9532 52.0163 63.0282 52.9575 63.1431 53.8926C63.4329 56.2508 63.9559 58.4061 64.6719 60.3259L63.1196 58.0005L63.0627 57.9148C55.6747 46.7817 50.8012 39.4377 49.4146 28.1529C48.2819 18.9344 50.0698 10.3633 53.478 8.67307C55.4034 7.71821 57.5492 9.22613 59.2261 12.459Z" fill="#CDB45B"/>
<rect y="29.3859" width="100" height="40" rx="20" fill="#9B9DA0"/>
<ellipse cx="21.7391" cy="49.3859" rx="10.8696" ry="11.1111" fill="white"/>
<rect x="19.5652" y="42.7192" width="4.34783" height="13.3333" rx="2.17391" fill="#E8971D"/>
<rect x="15.2173" y="51.6082" width="4.44444" height="13.0435" rx="2.22222" transform="rotate(-90 15.2173 51.6082)" fill="#E8971D"/>
<ellipse cx="80.2174" cy="40.7193" rx="3.26087" ry="3.33333" fill="white"/>
<ellipse cx="72.8261" cy="48.7192" rx="3.26087" ry="3.33333" fill="white"/>
<ellipse cx="80.2174" cy="56.7193" rx="3.26087" ry="3.33333" fill="white"/>
<ellipse cx="87.6087" cy="48.7192" rx="3.26087" ry="3.33333" fill="white"/>
</svg>
