<svg width="84" height="80" viewBox="0 0 84 80" fill="none" xmlns="http://www.w3.org/2000/svg">
<path d="M38.9792 68.8135H44.7083V63.6736C48.875 63.2124 52.1563 61.878 54.5521 59.6705C56.9479 57.4629 58.1458 54.6459 58.1458 51.2193C58.1458 47.7927 57.1563 45.058 55.1771 43.0152C53.1979 40.9724 49.7778 39.1932 44.9167 37.6776C40.5417 36.2938 37.5382 34.9264 35.9063 33.5756C34.2743 32.2247 33.4583 30.462 33.4583 28.2874C33.4583 26.2446 34.2396 24.6466 35.8021 23.4935C37.3646 22.3403 39.5 21.7637 42.2083 21.7637C44.2917 21.7637 46.0972 22.2249 47.625 23.1475C49.1528 24.07 50.4375 25.4539 51.4792 27.299L56.4792 25.0255C55.2986 22.7192 53.7361 20.907 51.7917 19.5891C49.8472 18.2712 47.5556 17.4804 44.9167 17.2168V12.1758H39.1875V17.2168C35.6458 17.6781 32.8507 18.8972 30.8021 20.8741C28.7535 22.851 27.7292 25.3221 27.7292 28.2874C27.7292 31.5163 28.6146 34.0863 30.3854 35.9972C32.1563 37.9082 35.4375 39.7204 40.2292 41.4337C45.1597 43.2129 48.4236 44.7614 50.0208 46.0794C51.6181 47.3973 52.4167 49.1106 52.4167 51.2193C52.4167 53.3938 51.4792 55.2225 49.6042 56.7051C47.7292 58.1878 45.4375 58.9291 42.7292 58.9291C40.0208 58.9291 37.6076 58.2043 35.4896 56.7545C33.3715 55.3048 31.8958 53.3279 31.0625 50.8239L25.75 52.5042C27.2083 55.5355 28.9965 57.9242 31.1146 59.6705C33.2326 61.4167 35.8542 62.6852 38.9792 63.476V68.8135ZM42 79.983C36.0972 79.983 30.6111 78.978 25.5417 76.9682C20.4722 74.9584 16.0625 72.1743 12.3125 68.6159C8.5625 65.0575 5.62848 60.8731 3.51042 56.0626C1.39236 51.2522 0.333336 46.0464 0.333336 40.4452C0.333336 34.91 1.39236 29.7371 3.51042 24.9267C5.62848 20.1163 8.5625 15.9319 12.3125 12.3735C16.0625 8.81507 20.4722 6.01449 25.5417 3.9717C30.6111 1.92892 36.0972 0.907532 42 0.907532C47.8333 0.907532 53.2847 1.92892 58.3542 3.9717C63.4236 6.01449 67.8333 8.81507 71.5833 12.3735C75.3333 15.9319 78.2847 20.1163 80.4375 24.9267C82.5903 29.7371 83.6667 34.91 83.6667 40.4452C83.6667 46.0464 82.5903 51.2522 80.4375 56.0626C78.2847 60.8731 75.3333 65.0575 71.5833 68.6159C67.8333 72.1743 63.4236 74.9584 58.3542 76.9682C53.2847 78.978 47.8333 79.983 42 79.983ZM42 74.0523C52.0695 74.0523 60.4896 70.8399 67.2604 64.415C74.0313 57.9901 77.4167 50.0002 77.4167 40.4452C77.4167 30.8903 74.0313 22.9004 67.2604 16.4755C60.4896 10.0506 52.0695 6.83819 42 6.83819C31.9306 6.83819 23.5104 10.0506 16.7396 16.4755C9.96875 22.9004 6.58334 30.8903 6.58334 40.4452C6.58334 50.0002 9.96875 57.9901 16.7396 64.415C23.5104 70.8399 31.9306 74.0523 42 74.0523Z" fill="white"/>
</svg>
