<svg width="76" height="76" viewBox="0 0 76 76" fill="none" xmlns="http://www.w3.org/2000/svg">
<path d="M6.75 75.5C5.08333 75.5 3.625 74.875 2.375 73.625C1.125 72.375 0.5 70.9167 0.5 69.25V6.75C0.5 5.08333 1.125 3.625 2.375 2.375C3.625 1.125 5.08333 0.5 6.75 0.5H54.875L75.5 21.125V69.25C75.5 70.9167 74.875 72.375 73.625 73.625C72.375 74.875 70.9167 75.5 69.25 75.5H6.75ZM6.75 69.25H69.25V24.5625H51.4375V6.75H6.75V69.25ZM17.0625 57.6875H58.9375V51.4375H17.0625V57.6875ZM17.0625 24.5625H38V18.3125H17.0625V24.5625ZM17.0625 41.125H58.9375V34.875H17.0625V41.125ZM6.75 6.75V24.5625V6.75V24.5625V69.25V6.75Z" fill="white"/>
</svg>
