<svg width="85" height="85" viewBox="0 0 85 85" fill="none" xmlns="http://www.w3.org/2000/svg">
<g clip-path="url(#clip0_6_5)">
<path d="M42.5 85C65.9721 85 85 65.9721 85 42.5C85 19.0279 65.9721 0 42.5 0C19.0279 0 0 19.0279 0 42.5C0 65.9721 19.0279 85 42.5 85Z" fill="#0077FF"/>
<path d="M44.0577 58.1716C27.5795 58.1716 18.1861 46.8725 17.7907 28.0697H26.0416C26.3144 41.8674 32.3989 47.7146 37.2181 48.9204V28.0697H44.9947V39.9697C49.7389 39.4597 54.7558 34.0395 56.44 28.0697H64.2165C62.9198 35.4193 57.4956 40.8434 53.641 43.0733C56.6557 44.5704 59.3184 46.6903 61.453 49.2931C63.5875 51.8959 65.1453 54.922 66.0232 58.1716H57.4679C55.6295 52.447 51.0474 48.0191 44.9947 47.4181V58.1716H44.0577Z" fill="white"/>
</g>
<defs>
<clipPath id="clip0_6_5">
<rect width="85" height="85" fill="white"/>
</clipPath>
</defs>
</svg>
