<svg width="85" height="85" viewBox="0 0 85 85" fill="none" xmlns="http://www.w3.org/2000/svg">
<g clip-path="url(#clip0_6_8)">
<path d="M42.5 85C65.9721 85 85 65.9721 85 42.5C85 19.0279 65.9721 0 42.5 0C19.0279 0 0 19.0279 0 42.5C0 65.9721 19.0279 85 42.5 85Z" fill="#FF0000"/>
<path d="M63.4653 31.699C63.2147 30.7654 62.723 29.9142 62.0396 29.2306C61.356 28.5472 60.5048 28.0554 59.5712 27.8048C56.1395 26.8837 42.3616 26.8837 42.3616 26.8837C42.3616 26.8837 28.5837 26.8837 25.1481 27.8048C24.2156 28.0576 23.3655 28.55 22.6823 29.2333C21.9992 29.9164 21.5067 30.7665 21.2539 31.699C20.3328 35.1347 20.3328 42.3023 20.3328 42.3023C20.3328 42.3023 20.3328 49.47 21.2539 52.9055C21.5067 53.838 21.9992 54.6881 22.6823 55.3714C23.3655 56.0545 24.2156 56.547 25.1481 56.7997C28.5837 57.7209 42.3616 57.7208 42.3616 57.7208C42.3616 57.7208 56.1355 57.7209 59.5712 56.7997C60.5048 56.5491 61.356 56.0575 62.0396 55.3739C62.723 54.6904 63.2147 53.8391 63.4653 52.9055C64.3865 49.47 64.3865 42.3023 64.3865 42.3023C64.3865 42.3023 64.3865 35.1347 63.4653 31.699ZM37.9534 48.9086V35.696L49.4186 42.3023L37.9534 48.9086Z" fill="white"/>
</g>
<defs>
<clipPath id="clip0_6_8">
<rect width="85" height="85" fill="white"/>
</clipPath>
</defs>
</svg>
